<svg width="1408" height="445" viewBox="0 0 1408 445" fill="none" xmlns="http://www.w3.org/2000/svg">
<rect x="29.5" y="64.5" width="1351" height="351" rx="12.5" fill="white" stroke="#0C0B0C"/>
<path d="M269 65H272" stroke="white" stroke-width="2"/>
<g filter="url(#filter0_i_572_128)">
<path fill-rule="evenodd" clip-rule="evenodd" d="M51.7151 421.453C50.5989 426.132 49.953 432.94 46.5333 436.454C41.0732 442.062 35.0673 433.131 33.216 428.865C32.7251 427.733 32.2462 426.593 31.8195 425.435C31.3114 424.058 30.8275 422.67 30.397 421.267C25.9045 422.884 20.1174 424.163 15.3408 423.281C11.3386 422.541 9.40889 419.499 10.8127 415.643C12.4884 411.039 16.4486 406.969 19.8462 403.567C18.3793 398.693 16.815 393.705 16.5696 388.631C16.3342 383.753 19.9677 381.411 24.5185 382.823C25.9886 383.279 27.4047 383.902 28.7728 384.606C30.6135 385.555 34.8384 388.18 35.9355 388.814C36.0965 388.815 36.9642 387.909 37.1324 387.767C38.276 386.801 39.4319 385.864 40.6325 384.968C41.5388 384.292 42.4511 383.623 43.3703 382.966C46.6416 380.624 54.7699 373.933 57.7075 379.966C58.0058 380.579 58.177 381.233 58.2901 381.9C58.4764 383.003 58.4522 384.164 58.4032 385.276C58.3111 387.364 57.9895 389.429 57.6833 391.492C57.2266 394.571 56.5601 397.645 56.2344 400.745C56.2306 400.783 56.2221 400.821 56.2118 400.858C57.821 401.84 59.442 402.813 61.0266 403.835C64.4837 406.065 70.5768 408.361 70.1109 412.773C69.8595 415.159 67.765 416.629 65.7298 417.507C61.5955 419.29 57.0525 419.885 52.62 420.511" fill="#ECB443"/>
</g>
<path d="M51.7151 421.453C50.5989 426.132 49.953 432.94 46.5333 436.454C41.0732 442.062 35.0673 433.131 33.216 428.865C32.7251 427.733 32.2462 426.593 31.8195 425.435C31.3114 424.058 30.8275 422.67 30.397 421.267C25.9045 422.884 20.1174 424.163 15.3408 423.281C11.3386 422.541 9.40889 419.499 10.8127 415.643C12.4884 411.039 16.4486 406.969 19.8462 403.567C18.3793 398.693 16.815 393.705 16.5696 388.631C16.3342 383.753 19.9677 381.411 24.5185 382.823C25.9886 383.279 27.4047 383.902 28.7728 384.606C30.6135 385.555 34.8384 388.18 35.9355 388.814C36.0965 388.815 36.9642 387.909 37.1324 387.767C38.276 386.801 39.4319 385.864 40.6325 384.968C41.5388 384.292 42.4511 383.623 43.3703 382.966C46.6416 380.624 54.7699 373.933 57.7075 379.966C58.0058 380.579 58.177 381.233 58.2901 381.9C58.4764 383.003 58.4522 384.164 58.4032 385.276C58.3111 387.364 57.9895 389.429 57.6833 391.492C57.2266 394.571 56.5601 397.645 56.2344 400.745C56.2306 400.783 56.2221 400.821 56.2118 400.858C57.821 401.84 59.442 402.813 61.0266 403.835C64.4837 406.065 70.5768 408.361 70.1109 412.773C69.8595 415.159 67.765 416.629 65.7298 417.507C61.5955 419.29 57.0525 419.885 52.62 420.511" stroke="black" stroke-miterlimit="1.5" stroke-linecap="round" stroke-linejoin="round"/>
<g filter="url(#filter1_i_572_128)">
<path fill-rule="evenodd" clip-rule="evenodd" d="M1375.24 357.823C1379.79 356.254 1385.88 353.146 1390.68 354.146C1398.34 355.744 1394.03 365.604 1391.42 369.456C1390.73 370.477 1390.02 371.493 1389.28 372.474C1388.39 373.642 1387.48 374.796 1386.52 375.912C1390.3 378.835 1394.48 383.032 1396.3 387.536C1397.82 391.31 1396.29 394.571 1392.29 395.455C1387.5 396.512 1381.94 395.354 1377.25 394.313C1373.92 398.166 1370.55 402.163 1366.4 405.093C1362.41 407.909 1358.49 406.099 1357.24 401.502C1356.83 400.017 1356.6 398.487 1356.46 396.955C1356.27 394.893 1356.22 389.919 1356.17 388.653C1356.08 388.517 1354.85 388.27 1354.64 388.205C1353.21 387.758 1351.8 387.286 1350.4 386.753C1349.34 386.351 1348.29 385.94 1347.24 385.518C1343.51 384.014 1333.5 380.745 1337.02 375.029C1337.37 374.449 1337.83 373.953 1338.34 373.5C1339.17 372.751 1340.16 372.148 1341.12 371.593C1342.93 370.55 1344.85 369.713 1346.75 368.865C1349.6 367.597 1352.55 366.511 1355.34 365.122C1355.37 365.105 1355.41 365.092 1355.45 365.08C1355.41 363.195 1355.36 361.306 1355.38 359.42C1355.4 355.306 1354.07 348.933 1358.04 346.958C1360.19 345.89 1362.56 346.868 1364.39 348.115C1368.11 350.646 1371.05 354.16 1373.96 357.565" fill="#8EB9F4"/>
</g>
<path d="M1375.24 357.823C1379.79 356.254 1385.88 353.146 1390.68 354.146C1398.34 355.744 1394.03 365.604 1391.42 369.456C1390.73 370.477 1390.02 371.493 1389.28 372.474C1388.39 373.642 1387.48 374.796 1386.52 375.912C1390.3 378.835 1394.48 383.032 1396.3 387.536C1397.82 391.31 1396.29 394.571 1392.29 395.455C1387.5 396.512 1381.94 395.354 1377.25 394.313C1373.92 398.166 1370.55 402.163 1366.4 405.093C1362.41 407.909 1358.49 406.099 1357.24 401.502C1356.83 400.017 1356.6 398.487 1356.46 396.955C1356.27 394.893 1356.22 389.919 1356.17 388.653C1356.08 388.517 1354.85 388.27 1354.64 388.205C1353.21 387.758 1351.8 387.286 1350.4 386.753C1349.34 386.351 1348.29 385.94 1347.24 385.518C1343.51 384.014 1333.5 380.745 1337.02 375.029C1337.37 374.449 1337.83 373.953 1338.34 373.5C1339.17 372.751 1340.16 372.148 1341.12 371.593C1342.93 370.55 1344.85 369.713 1346.75 368.865C1349.6 367.597 1352.55 366.511 1355.34 365.122C1355.37 365.105 1355.41 365.092 1355.45 365.08C1355.41 363.195 1355.36 361.306 1355.38 359.42C1355.4 355.306 1354.07 348.933 1358.04 346.958C1360.19 345.89 1362.56 346.868 1364.39 348.115C1368.11 350.646 1371.05 354.16 1373.96 357.565" stroke="black" stroke-miterlimit="1.5" stroke-linecap="round" stroke-linejoin="round"/>
<g filter="url(#filter2_i_572_128)">
<path fill-rule="evenodd" clip-rule="evenodd" d="M1384.49 68.2019C1389.02 69.8277 1395.72 71.2211 1398.83 75.0077C1403.8 81.0533 1394.26 86.0368 1389.82 87.406C1388.64 87.769 1387.45 88.1192 1386.25 88.4155C1384.83 88.7684 1383.4 89.0962 1381.95 89.3692C1383.07 94.0127 1383.7 99.9057 1382.29 104.556C1381.12 108.452 1377.88 110.034 1374.2 108.213C1369.81 106.04 1366.2 101.654 1363.2 97.9021C1358.19 98.822 1353.06 99.8263 1347.99 99.5102C1343.12 99.2058 1341.19 95.336 1343.1 90.9688C1343.71 89.558 1344.49 88.2193 1345.34 86.9374C1346.49 85.2127 1349.56 81.3033 1350.31 80.2827C1350.33 80.1228 1349.53 79.1605 1349.4 78.9776C1348.57 77.7344 1347.77 76.4822 1347.01 75.19C1346.44 74.2147 1345.87 73.2341 1345.32 72.2479C1343.35 68.7382 1337.6 59.9211 1343.92 57.6672C1344.56 57.4385 1345.23 57.3404 1345.91 57.3017C1347.02 57.2383 1348.17 57.3904 1349.27 57.5619C1351.34 57.8838 1353.36 58.4315 1355.37 58.9634C1358.38 59.7572 1361.36 60.7589 1364.41 61.4247C1364.45 61.4327 1364.48 61.4453 1364.52 61.4596C1365.67 59.9686 1366.82 58.4649 1368.01 57.0029C1370.61 53.813 1373.56 48.0105 1377.9 48.9605C1380.24 49.4738 1381.47 51.7176 1382.12 53.8373C1383.43 58.1431 1383.52 62.724 1383.66 67.1985" fill="#FBB5D0"/>
</g>
<path d="M1384.49 68.2019C1389.02 69.8277 1395.72 71.2211 1398.83 75.0077C1403.8 81.0533 1394.26 86.0368 1389.82 87.406C1388.64 87.769 1387.45 88.1192 1386.25 88.4155C1384.83 88.7684 1383.4 89.0962 1381.95 89.3692C1383.07 94.0127 1383.7 99.9057 1382.29 104.556C1381.12 108.452 1377.88 110.034 1374.2 108.213C1369.81 106.04 1366.2 101.654 1363.2 97.9021C1358.19 98.822 1353.06 99.8263 1347.99 99.5102C1343.12 99.2058 1341.19 95.336 1343.1 90.9688C1343.71 89.558 1344.49 88.2193 1345.34 86.9374C1346.49 85.2127 1349.56 81.3033 1350.31 80.2827C1350.33 80.1228 1349.53 79.1605 1349.4 78.9776C1348.57 77.7344 1347.77 76.4822 1347.01 75.19C1346.44 74.2147 1345.87 73.2341 1345.32 72.2479C1343.35 68.7382 1337.6 59.9211 1343.92 57.6672C1344.56 57.4385 1345.23 57.3404 1345.91 57.3017C1347.02 57.2383 1348.17 57.3904 1349.27 57.5619C1351.34 57.8838 1353.36 58.4315 1355.37 58.9634C1358.38 59.7572 1361.36 60.7589 1364.41 61.4247C1364.45 61.4327 1364.48 61.4453 1364.52 61.4596C1365.67 59.9686 1366.82 58.4649 1368.01 57.0029C1370.61 53.813 1373.56 48.0105 1377.9 48.9605C1380.24 49.4737 1381.47 51.7176 1382.12 53.8373C1383.43 58.1431 1383.52 62.724 1383.66 67.1985" stroke="black" stroke-miterlimit="1.5" stroke-linecap="round" stroke-linejoin="round"/>
<path d="M310 9.16699L274 1.66699L277 6.66699C285.667 8.33366 303.3 11.867 304.5 12.667C305.7 13.467 306 18.3337 306 20.667L293.5 64.167L299.5 63.667L312 19.667L310 9.16699Z" fill="#E8BF80"/>
<path fill-rule="evenodd" clip-rule="evenodd" d="M236 9.66699C240.823 9.73309 248.093 10.4482 253 10.3408C258.059 10.2334 263.126 10.5061 268.126 10.3408C269.5 12.6677 267 10.8593 269.5 12.6677L271 36.6677C271.607 46.1285 272.216 55.7152 273 65.1677C273.388 69.8526 273.323 74.9745 273.5 79.6677C273.652 83.7164 274.003 89.718 274.5 93.6676C275.166 93.4115 274.876 93.56 275.5 92.6676C277.701 89.5112 279.5 87.6676 280 84.6676C279.874 80.5776 280.118 76.7576 280 72.6676L278.488 23.5531C278 8.16759 281 11.1671 273 1.1674C267.047 0.63859 256.756 1.51834 250.5 1.66707C242.751 1.84059 245.599 2.08976 238.5 7.66707C236.831 8.98084 236.32 8.61763 236 9.66699Z" fill="#E8BF80"/>
<path fill-rule="evenodd" clip-rule="evenodd" d="M255.957 44.7216C255.477 43.7151 255.911 42.5381 256.197 41.2843C256.502 39.9622 256.594 38.9302 257.499 38.3417C257.905 39.2372 257.572 40.8152 257.351 42.0349C257.083 43.4934 257.203 44.3548 255.957 44.7216ZM248.242 52.4576C247.153 51.4 249.894 41.924 250.346 39.9963C250.9 37.5996 252.755 29.5224 253.992 28.0724C254.287 28.4477 254.37 28.55 254.167 29.6418L253.069 34.2902C252.57 36.3799 252.044 38.4525 251.527 40.5337C250.928 42.9816 249.875 51.4768 248.242 52.4576ZM246.968 37.5399C245.99 35.9023 247.633 31.9276 248.094 29.9659C248.528 28.1321 248.851 23.8248 250.162 22.9463C250.688 24.021 248.731 36.7126 246.968 37.5399ZM236.281 14.4937L249 93.6641C250.338 94.0735 273.096 94.2342 274 93.7139L271.176 93.7054C271.702 90.9333 270.65 83.4617 270.456 80.2717C270.188 75.862 269.57 71.3927 269.229 66.9745C268.444 56.7564 267.143 37.3608 265.814 27.4924C264.531 17.9225 263.008 12.4893 250.66 13.2314C246.212 13.5043 240.268 13.5384 236.281 14.4937Z" fill="#E8BF80"/>
<path fill-rule="evenodd" clip-rule="evenodd" d="M248.242 52.4575C249.876 51.4766 250.928 42.9815 251.527 40.5336C252.044 38.4524 252.57 36.3798 253.069 34.2901L254.167 29.6416C254.37 28.5499 254.287 28.4476 253.992 28.0723C252.755 29.5222 250.9 37.5995 250.346 39.9962C249.894 41.9238 247.153 51.3999 248.242 52.4575Z" fill="#0C0B0C"/>
<path fill-rule="evenodd" clip-rule="evenodd" d="M246.968 37.5409C248.73 36.7135 250.687 24.022 250.161 22.9473C248.85 23.8258 248.527 28.1331 248.094 29.9669C247.632 31.9286 245.989 35.9033 246.968 37.5409Z" fill="#0C0B0C"/>
<path fill-rule="evenodd" clip-rule="evenodd" d="M255.959 44.7207C257.205 44.354 257.085 43.4925 257.353 42.034C257.574 40.8143 257.906 39.2364 257.5 38.3408C256.596 38.9293 256.503 39.9614 256.199 41.2834C255.913 42.5372 255.479 43.7143 255.959 44.7207Z" fill="#0C0B0C"/>
<path fill-rule="evenodd" clip-rule="evenodd" d="M289.528 35.8237C289.143 34.7661 292.22 27.6105 292.909 26.9825C293.295 27.3461 293.69 26.2967 293.185 28.1971C293.13 28.4202 292.808 29.2052 292.707 29.5027C292.404 30.3455 292.147 31.1552 291.917 31.932C290.787 35.7163 290.971 36.3773 289.528 35.8237ZM287.066 30.833C286.809 30.1389 288.591 25.2555 289.253 24.107C289.676 23.3633 289.336 23.8426 289.878 23.4377C290.383 24.0326 290.475 22.4379 290.218 24.6193C290.208 24.6854 289.859 25.6604 289.823 25.7844C288.987 28.2302 288.711 30.552 287.066 30.833ZM290.466 63.8183C290.08 63.025 290.888 61.2155 291.246 59.8687L298.615 32.2046C299.717 27.8666 302.032 19.3972 296.134 17.3067C290.769 15.398 285.054 13.9354 279 13.167L280.066 63.6944L290.466 63.8183Z" fill="#E8BF80"/>
<path fill-rule="evenodd" clip-rule="evenodd" d="M289.527 35.8236C290.97 36.3772 290.786 35.7163 291.916 31.9319C292.146 31.1552 292.403 30.3454 292.706 29.5026C292.807 29.2051 293.129 28.4201 293.184 28.197C293.689 26.2966 293.294 27.346 292.908 26.9824C292.219 27.6104 289.142 34.766 289.527 35.8236Z" fill="#0C0B0C"/>
<path fill-rule="evenodd" clip-rule="evenodd" d="M287.062 30.8331C288.707 30.5521 288.982 28.2303 289.818 25.7845C289.855 25.6605 290.204 24.6855 290.213 24.6194C290.471 22.438 290.379 24.0327 289.874 23.4378C289.331 23.8427 289.671 23.3634 289.249 24.1071C288.587 25.2556 286.805 30.139 287.062 30.8331Z" fill="#0C0B0C"/>
<path d="M235 10.167L248.094 91.643C248.328 93.0975 249.583 94.167 251.056 94.167H274.5M235 10.167H266.19C267.771 10.167 269.08 11.3936 269.184 12.971L274.5 94.167M235 10.167L244.698 2.31601C245.218 1.89542 245.863 1.66039 246.531 1.64824L273 1.16699M274.5 94.167L279.543 85.9144C279.842 85.4263 279.994 84.8631 279.983 84.2912L279.588 64.167M273 1.16699L308.519 8.27085C309.717 8.51033 310.649 9.4517 310.878 10.6513L312.368 18.4717C312.455 18.9289 312.437 19.3899 312.311 19.8379C308.764 32.3938 302.249 55.3024 300.126 62.2354C299.766 63.4083 298.696 64.167 297.469 64.167H293.5M273 1.16699L277.033 6.66699M279.588 64.167L278.519 9.61646C278.507 8.99859 278.304 8.39954 277.938 7.90119L277.033 6.66699M279.588 64.167H293.5M293.5 64.167L305.83 21.2577C305.942 20.868 305.974 20.4595 305.924 20.0571L305.264 14.7812C305.106 13.5151 304.164 12.4877 302.917 12.22L277.033 6.66699" stroke="black" stroke-linejoin="round"/>
<defs>
<filter id="filter0_i_572_128" x="9.85742" y="377.01" width="60.7793" height="61.7402" filterUnits="userSpaceOnUse" color-interpolation-filters="sRGB">
<feFlood flood-opacity="0" result="BackgroundImageFix"/>
<feBlend mode="normal" in="SourceGraphic" in2="BackgroundImageFix" result="shape"/>
<feColorMatrix in="SourceAlpha" type="matrix" values="0 0 0 0 0 0 0 0 0 0 0 0 0 0 0 0 0 0 127 0" result="hardAlpha"/>
<feOffset dx="-1" dy="3"/>
<feComposite in2="hardAlpha" operator="arithmetic" k2="-1" k3="1"/>
<feColorMatrix type="matrix" values="0 0 0 0 1 0 0 0 0 1 0 0 0 0 1 0 0 0 1 0"/>
<feBlend mode="normal" in2="shape" result="effect1_innerShadow_572_128"/>
</filter>
<filter id="filter1_i_572_128" x="1335.78" y="346" width="61.6016" height="60.9355" filterUnits="userSpaceOnUse" color-interpolation-filters="sRGB">
<feFlood flood-opacity="0" result="BackgroundImageFix"/>
<feBlend mode="normal" in="SourceGraphic" in2="BackgroundImageFix" result="shape"/>
<feColorMatrix in="SourceAlpha" type="matrix" values="0 0 0 0 0 0 0 0 0 0 0 0 0 0 0 0 0 0 127 0" result="hardAlpha"/>
<feOffset dx="5" dy="2"/>
<feComposite in2="hardAlpha" operator="arithmetic" k2="-1" k3="1"/>
<feColorMatrix type="matrix" values="0 0 0 0 1 0 0 0 0 1 0 0 0 0 1 0 0 0 1 0"/>
<feBlend mode="normal" in2="shape" result="effect1_innerShadow_572_128"/>
</filter>
<filter id="filter2_i_572_128" x="1340.54" y="48.3564" width="60.1914" height="61.1094" filterUnits="userSpaceOnUse" color-interpolation-filters="sRGB">
<feFlood flood-opacity="0" result="BackgroundImageFix"/>
<feBlend mode="normal" in="SourceGraphic" in2="BackgroundImageFix" result="shape"/>
<feColorMatrix in="SourceAlpha" type="matrix" values="0 0 0 0 0 0 0 0 0 0 0 0 0 0 0 0 0 0 127 0" result="hardAlpha"/>
<feOffset dx="5" dy="1"/>
<feComposite in2="hardAlpha" operator="arithmetic" k2="-1" k3="1"/>
<feColorMatrix type="matrix" values="0 0 0 0 1 0 0 0 0 1 0 0 0 0 1 0 0 0 1 0"/>
<feBlend mode="normal" in2="shape" result="effect1_innerShadow_572_128"/>
</filter>
</defs>
</svg>
